<svg width="120" height="120" viewBox="0 0 120 120" fill="none" xmlns="http://www.w3.org/2000/svg">
<path fill-rule="evenodd" clip-rule="evenodd" d="M0 8C0 3.58172 3.58172 0 8 0H112C116.418 0 120 3.58172 120 8V112C120 116.418 116.418 120 112 120H8C3.58172 120 0 116.418 0 112V8ZM27.36 28.32C24.709 28.32 22.56 30.469 22.56 33.12V61.68C22.56 64.331 24.709 66.48 27.36 66.48H92.64C95.291 66.48 97.44 64.331 97.44 61.68V33.12C97.44 30.469 95.291 28.32 92.64 28.32H27.36Z" fill="#BF2222"/>
<path d="M61.62 106.68C61.62 106.382 61.3782 106.14 61.08 106.14C60.7817 106.14 60.54 106.382 60.54 106.68V113.28C60.54 113.578 60.7817 113.82 61.08 113.82C61.3782 113.82 61.62 113.578 61.62 113.28V106.68Z" fill="#929292" stroke="black" stroke-width="0.15"/>
<path d="M111.06 106.68C111.06 106.382 110.818 106.14 110.52 106.14C110.222 106.14 109.98 106.382 109.98 106.68V113.28C109.98 113.578 110.222 113.82 110.52 113.82C110.818 113.82 111.06 113.578 111.06 113.28V106.68Z" fill="#929292" stroke="black" stroke-width="0.15"/>
<path d="M111.06 106.68C111.06 106.382 110.818 106.14 110.52 106.14C110.222 106.14 109.98 106.382 109.98 106.68V113.28C109.98 113.578 110.222 113.82 110.52 113.82C110.818 113.82 111.06 113.578 111.06 113.28V106.68Z" fill="#929292" stroke="black" stroke-width="0.15"/>
<path d="M61.62 106.68C61.62 106.382 61.3782 106.14 61.08 106.14C60.7817 106.14 60.54 106.382 60.54 106.68V113.28C60.54 113.578 60.7817 113.82 61.08 113.82C61.3782 113.82 61.62 113.578 61.62 113.28V106.68Z" fill="#929292" stroke="black" stroke-width="0.15"/>
<path d="M111.06 106.68C111.06 106.382 110.818 106.14 110.52 106.14C110.222 106.14 109.98 106.382 109.98 106.68V113.28C109.98 113.578 110.222 113.82 110.52 113.82C110.818 113.82 111.06 113.578 111.06 113.28V106.68Z" fill="#929292" stroke="black" stroke-width="0.15"/>
<path d="M86.34 106.68C86.34 106.382 86.0982 106.14 85.8 106.14C85.5018 106.14 85.26 106.382 85.26 106.68V113.28C85.26 113.578 85.5018 113.82 85.8 113.82C86.0982 113.82 86.34 113.578 86.34 113.28V106.68Z" fill="#929292" stroke="black" stroke-width="0.15"/>
<path d="M98.58 106.68C98.58 106.382 98.3382 106.14 98.04 106.14C97.7418 106.14 97.5 106.382 97.5 106.68V113.28C97.5 113.578 97.7418 113.82 98.04 113.82C98.3382 113.82 98.58 113.578 98.58 113.28V106.68Z" fill="#929292" stroke="black" stroke-width="0.15"/>
<path d="M92.34 106.68C92.34 106.382 92.0982 106.14 91.8 106.14C91.5018 106.14 91.26 106.382 91.26 106.68V113.28C91.26 113.578 91.5018 113.82 91.8 113.82C92.0982 113.82 92.34 113.578 92.34 113.28V106.68Z" fill="#929292" stroke="black" stroke-width="0.15"/>
<path d="M104.82 106.68C104.82 106.382 104.578 106.14 104.28 106.14C103.982 106.14 103.74 106.382 103.74 106.68V113.28C103.74 113.578 103.982 113.82 104.28 113.82C104.578 113.82 104.82 113.578 104.82 113.28V106.68Z" fill="#929292" stroke="black" stroke-width="0.15"/>
<path d="M101.7 106.68C101.7 106.382 101.458 106.14 101.16 106.14C100.862 106.14 100.62 106.382 100.62 106.68V113.28C100.62 113.578 100.862 113.82 101.16 113.82C101.458 113.82 101.7 113.578 101.7 113.28V106.68Z" fill="#929292" stroke="black" stroke-width="0.15"/>
<path d="M95.46 106.68C95.46 106.382 95.2182 106.14 94.92 106.14C94.6218 106.14 94.38 106.382 94.38 106.68V113.28C94.38 113.578 94.6218 113.82 94.92 113.82C95.2182 113.82 95.46 113.578 95.46 113.28V106.68Z" fill="#929292" stroke="black" stroke-width="0.15"/>
<path d="M107.94 106.68C107.94 106.382 107.698 106.14 107.4 106.14C107.102 106.14 106.86 106.382 106.86 106.68V113.28C106.86 113.578 107.102 113.82 107.4 113.82C107.698 113.82 107.94 113.578 107.94 113.28V106.68Z" fill="#929292" stroke="black" stroke-width="0.15"/>
<path d="M89.22 106.68C89.22 106.382 88.9782 106.14 88.68 106.14C88.3818 106.14 88.14 106.382 88.14 106.68V113.28C88.14 113.578 88.3818 113.82 88.68 113.82C88.9782 113.82 89.22 113.578 89.22 113.28V106.68Z" fill="#929292" stroke="black" stroke-width="0.15"/>
<path d="M73.86 106.68C73.86 106.382 73.6182 106.14 73.32 106.14C73.0218 106.14 72.78 106.382 72.78 106.68V113.28C72.78 113.578 73.0218 113.82 73.32 113.82C73.6182 113.82 73.86 113.578 73.86 113.28V106.68Z" fill="#929292" stroke="black" stroke-width="0.15"/>
<path d="M70.74 106.68C70.74 106.382 70.4982 106.14 70.2 106.14C69.9018 106.14 69.66 106.382 69.66 106.68V113.28C69.66 113.578 69.9018 113.82 70.2 113.82C70.4982 113.82 70.74 113.578 70.74 113.28V106.68Z" fill="#929292" stroke="black" stroke-width="0.15"/>
<path d="M67.62 106.68C67.62 106.382 67.3782 106.14 67.08 106.14C66.7818 106.14 66.54 106.382 66.54 106.68V113.28C66.54 113.578 66.7818 113.82 67.08 113.82C67.3782 113.82 67.62 113.578 67.62 113.28V106.68Z" fill="#929292" stroke="black" stroke-width="0.15"/>
<path d="M64.5 106.68C64.5 106.382 64.2582 106.14 63.96 106.14C63.6618 106.14 63.42 106.382 63.42 106.68V113.28C63.42 113.578 63.6618 113.82 63.96 113.82C64.2582 113.82 64.5 113.578 64.5 113.28V106.68Z" fill="#929292" stroke="black" stroke-width="0.15"/>
<path d="M80.1 106.68C80.1 106.382 79.8582 106.14 79.56 106.14C79.2618 106.14 79.02 106.382 79.02 106.68V113.28C79.02 113.578 79.2618 113.82 79.56 113.82C79.8582 113.82 80.1 113.578 80.1 113.28V106.68Z" fill="#929292" stroke="black" stroke-width="0.15"/>
<path d="M83.22 106.68C83.22 106.382 82.9782 106.14 82.68 106.14C82.3817 106.14 82.14 106.382 82.14 106.68V113.28C82.14 113.578 82.3817 113.82 82.68 113.82C82.9782 113.82 83.22 113.578 83.22 113.28V106.68Z" fill="#929292" stroke="black" stroke-width="0.15"/>
<path d="M76.98 106.68C76.98 106.382 76.7382 106.14 76.44 106.14C76.1418 106.14 75.9 106.382 75.9 106.68V113.28C75.9 113.578 76.1418 113.82 76.44 113.82C76.7382 113.82 76.98 113.578 76.98 113.28V106.68Z" fill="#929292" stroke="black" stroke-width="0.15"/>
<path d="M9.06001 106.68C9.06001 106.382 8.81824 106.14 8.52001 106.14C8.22178 106.14 7.98001 106.382 7.98001 106.68V113.28C7.98001 113.578 8.22178 113.82 8.52001 113.82C8.81824 113.82 9.06001 113.578 9.06001 113.28V106.68Z" fill="#929292" stroke="black" stroke-width="0.15"/>
<path d="M58.5 106.68C58.5 106.382 58.2582 106.14 57.96 106.14C57.6618 106.14 57.42 106.382 57.42 106.68V113.28C57.42 113.578 57.6618 113.82 57.96 113.82C58.2582 113.82 58.5 113.578 58.5 113.28V106.68Z" fill="#929292" stroke="black" stroke-width="0.15"/>
<path d="M58.5 106.68C58.5 106.382 58.2582 106.14 57.96 106.14C57.6618 106.14 57.42 106.382 57.42 106.68V113.28C57.42 113.578 57.6618 113.82 57.96 113.82C58.2582 113.82 58.5 113.578 58.5 113.28V106.68Z" fill="#929292" stroke="black" stroke-width="0.15"/>
<path d="M9.06001 106.68C9.06001 106.382 8.81824 106.14 8.52001 106.14C8.22178 106.14 7.98001 106.382 7.98001 106.68V113.28C7.98001 113.578 8.22178 113.82 8.52001 113.82C8.81824 113.82 9.06001 113.578 9.06001 113.28V106.68Z" fill="#929292" stroke="black" stroke-width="0.15"/>
<path d="M58.5 106.68C58.5 106.382 58.2582 106.14 57.96 106.14C57.6618 106.14 57.42 106.382 57.42 106.68V113.28C57.42 113.578 57.6618 113.82 57.96 113.82C58.2582 113.82 58.5 113.578 58.5 113.28V106.68Z" fill="#929292" stroke="black" stroke-width="0.15"/>
<path d="M33.78 106.68C33.78 106.382 33.5382 106.14 33.24 106.14C32.9418 106.14 32.7 106.382 32.7 106.68V113.28C32.7 113.578 32.9418 113.82 33.24 113.82C33.5382 113.82 33.78 113.578 33.78 113.28V106.68Z" fill="#929292" stroke="black" stroke-width="0.15"/>
<path d="M46.02 106.68C46.02 106.382 45.7782 106.14 45.48 106.14C45.1818 106.14 44.94 106.382 44.94 106.68V113.28C44.94 113.578 45.1818 113.82 45.48 113.82C45.7782 113.82 46.02 113.578 46.02 113.28V106.68Z" fill="#929292" stroke="black" stroke-width="0.15"/>
<path d="M39.78 106.68C39.78 106.382 39.5382 106.14 39.24 106.14C38.9418 106.14 38.7 106.382 38.7 106.68V113.28C38.7 113.578 38.9418 113.82 39.24 113.82C39.5382 113.82 39.78 113.578 39.78 113.28V106.68Z" fill="#929292" stroke="black" stroke-width="0.15"/>
<path d="M52.26 106.68C52.26 106.382 52.0182 106.14 51.72 106.14C51.4218 106.14 51.18 106.382 51.18 106.68V113.28C51.18 113.578 51.4218 113.82 51.72 113.82C52.0182 113.82 52.26 113.578 52.26 113.28V106.68Z" fill="#929292" stroke="black" stroke-width="0.15"/>
<path d="M49.14 106.68C49.14 106.382 48.8982 106.14 48.6 106.14C48.3018 106.14 48.06 106.382 48.06 106.68V113.28C48.06 113.578 48.3018 113.82 48.6 113.82C48.8982 113.82 49.14 113.578 49.14 113.28V106.68Z" fill="#929292" stroke="black" stroke-width="0.15"/>
<path d="M42.9 106.68C42.9 106.382 42.6582 106.14 42.36 106.14C42.0618 106.14 41.82 106.382 41.82 106.68V113.28C41.82 113.578 42.0618 113.82 42.36 113.82C42.6582 113.82 42.9 113.578 42.9 113.28V106.68Z" fill="#929292" stroke="black" stroke-width="0.15"/>
<path d="M55.38 106.68C55.38 106.382 55.1382 106.14 54.84 106.14C54.5418 106.14 54.3 106.382 54.3 106.68V113.28C54.3 113.578 54.5418 113.82 54.84 113.82C55.1382 113.82 55.38 113.578 55.38 113.28V106.68Z" fill="#929292" stroke="black" stroke-width="0.15"/>
<path d="M36.66 106.68C36.66 106.382 36.4183 106.14 36.12 106.14C35.8218 106.14 35.58 106.382 35.58 106.68V113.28C35.58 113.578 35.8218 113.82 36.12 113.82C36.4183 113.82 36.66 113.578 36.66 113.28V106.68Z" fill="#929292" stroke="black" stroke-width="0.15"/>
<path d="M21.3 106.68C21.3 106.382 21.0582 106.14 20.76 106.14C20.4618 106.14 20.22 106.382 20.22 106.68V113.28C20.22 113.578 20.4618 113.82 20.76 113.82C21.0582 113.82 21.3 113.578 21.3 113.28V106.68Z" fill="#929292" stroke="black" stroke-width="0.15"/>
<path d="M18.18 106.68C18.18 106.382 17.9382 106.14 17.64 106.14C17.3418 106.14 17.1 106.382 17.1 106.68V113.28C17.1 113.578 17.3418 113.82 17.64 113.82C17.9382 113.82 18.18 113.578 18.18 113.28V106.68Z" fill="#929292" stroke="black" stroke-width="0.15"/>
<path d="M15.06 106.68C15.06 106.382 14.8182 106.14 14.52 106.14C14.2218 106.14 13.98 106.382 13.98 106.68V113.28C13.98 113.578 14.2218 113.82 14.52 113.82C14.8182 113.82 15.06 113.578 15.06 113.28V106.68Z" fill="#929292" stroke="black" stroke-width="0.15"/>
<path d="M11.94 106.68C11.94 106.382 11.6982 106.14 11.4 106.14C11.1018 106.14 10.86 106.382 10.86 106.68V113.28C10.86 113.578 11.1018 113.82 11.4 113.82C11.6982 113.82 11.94 113.578 11.94 113.28V106.68Z" fill="#929292" stroke="black" stroke-width="0.15"/>
<path d="M27.54 106.68C27.54 106.382 27.2982 106.14 27 106.14C26.7018 106.14 26.46 106.382 26.46 106.68V113.28C26.46 113.578 26.7018 113.82 27 113.82C27.2982 113.82 27.54 113.578 27.54 113.28V106.68Z" fill="#929292" stroke="black" stroke-width="0.15"/>
<path d="M30.66 106.68C30.66 106.382 30.4182 106.14 30.12 106.14C29.8218 106.14 29.58 106.382 29.58 106.68V113.28C29.58 113.578 29.8218 113.82 30.12 113.82C30.4182 113.82 30.66 113.578 30.66 113.28V106.68Z" fill="#929292" stroke="black" stroke-width="0.15"/>
<path d="M24.42 106.68C24.42 106.382 24.1782 106.14 23.88 106.14C23.5818 106.14 23.34 106.382 23.34 106.68V113.28C23.34 113.578 23.5818 113.82 23.88 113.82C24.1782 113.82 24.42 113.578 24.42 113.28V106.68Z" fill="#929292" stroke="black" stroke-width="0.15"/>
<path d="M61.62 8.76C61.62 8.46177 61.3782 8.22 61.08 8.22C60.7817 8.22 60.54 8.46177 60.54 8.76V15.36C60.54 15.6582 60.7817 15.9 61.08 15.9C61.3782 15.9 61.62 15.6582 61.62 15.36V8.76Z" fill="#929292" stroke="black" stroke-width="0.15"/>
<path d="M111.06 8.76C111.06 8.46177 110.818 8.22 110.52 8.22C110.222 8.22 109.98 8.46177 109.98 8.76V15.36C109.98 15.6582 110.222 15.9 110.52 15.9C110.818 15.9 111.06 15.6582 111.06 15.36V8.76Z" fill="#929292" stroke="black" stroke-width="0.15"/>
<path d="M111.06 8.76C111.06 8.46177 110.818 8.22 110.52 8.22C110.222 8.22 109.98 8.46177 109.98 8.76V15.36C109.98 15.6582 110.222 15.9 110.52 15.9C110.818 15.9 111.06 15.6582 111.06 15.36V8.76Z" fill="#929292" stroke="black" stroke-width="0.15"/>
<path d="M61.62 8.76C61.62 8.46177 61.3782 8.22 61.08 8.22C60.7817 8.22 60.54 8.46177 60.54 8.76V15.36C60.54 15.6582 60.7817 15.9 61.08 15.9C61.3782 15.9 61.62 15.6582 61.62 15.36V8.76Z" fill="#929292" stroke="black" stroke-width="0.15"/>
<path d="M111.06 8.76C111.06 8.46177 110.818 8.22 110.52 8.22C110.222 8.22 109.98 8.46177 109.98 8.76V15.36C109.98 15.6582 110.222 15.9 110.52 15.9C110.818 15.9 111.06 15.6582 111.06 15.36V8.76Z" fill="#929292" stroke="black" stroke-width="0.15"/>
<path d="M86.34 8.76C86.34 8.46177 86.0982 8.22 85.8 8.22C85.5018 8.22 85.26 8.46177 85.26 8.76V15.36C85.26 15.6582 85.5018 15.9 85.8 15.9C86.0982 15.9 86.34 15.6582 86.34 15.36V8.76Z" fill="#929292" stroke="black" stroke-width="0.15"/>
<path d="M98.58 8.76C98.58 8.46177 98.3382 8.22 98.04 8.22C97.7418 8.22 97.5 8.46177 97.5 8.76V15.36C97.5 15.6582 97.7418 15.9 98.04 15.9C98.3382 15.9 98.58 15.6582 98.58 15.36V8.76Z" fill="#929292" stroke="black" stroke-width="0.15"/>
<path d="M92.34 8.76C92.34 8.46177 92.0982 8.22 91.8 8.22C91.5018 8.22 91.26 8.46177 91.26 8.76V15.36C91.26 15.6582 91.5018 15.9 91.8 15.9C92.0982 15.9 92.34 15.6582 92.34 15.36V8.76Z" fill="#929292" stroke="black" stroke-width="0.15"/>
<path d="M104.82 8.76C104.82 8.46177 104.578 8.22 104.28 8.22C103.982 8.22 103.74 8.46177 103.74 8.76V15.36C103.74 15.6582 103.982 15.9 104.28 15.9C104.578 15.9 104.82 15.6582 104.82 15.36V8.76Z" fill="#929292" stroke="black" stroke-width="0.15"/>
<path d="M101.7 8.76C101.7 8.46177 101.458 8.22 101.16 8.22C100.862 8.22 100.62 8.46177 100.62 8.76V15.36C100.62 15.6582 100.862 15.9 101.16 15.9C101.458 15.9 101.7 15.6582 101.7 15.36V8.76Z" fill="#929292" stroke="black" stroke-width="0.15"/>
<path d="M95.46 8.76C95.46 8.46177 95.2182 8.22 94.92 8.22C94.6218 8.22 94.38 8.46177 94.38 8.76V15.36C94.38 15.6582 94.6218 15.9 94.92 15.9C95.2182 15.9 95.46 15.6582 95.46 15.36V8.76Z" fill="#929292" stroke="black" stroke-width="0.15"/>
<path d="M107.94 8.76C107.94 8.46177 107.698 8.22 107.4 8.22C107.102 8.22 106.86 8.46177 106.86 8.76V15.36C106.86 15.6582 107.102 15.9 107.4 15.9C107.698 15.9 107.94 15.6582 107.94 15.36V8.76Z" fill="#929292" stroke="black" stroke-width="0.15"/>
<path d="M89.22 8.76C89.22 8.46177 88.9782 8.22 88.68 8.22C88.3818 8.22 88.14 8.46177 88.14 8.76V15.36C88.14 15.6582 88.3818 15.9 88.68 15.9C88.9782 15.9 89.22 15.6582 89.22 15.36V8.76Z" fill="#929292" stroke="black" stroke-width="0.15"/>
<path d="M73.86 8.76C73.86 8.46177 73.6182 8.22 73.32 8.22C73.0218 8.22 72.78 8.46177 72.78 8.76V15.36C72.78 15.6582 73.0218 15.9 73.32 15.9C73.6182 15.9 73.86 15.6582 73.86 15.36V8.76Z" fill="#929292" stroke="black" stroke-width="0.15"/>
<path d="M70.74 8.76C70.74 8.46177 70.4982 8.22 70.2 8.22C69.9018 8.22 69.66 8.46177 69.66 8.76V15.36C69.66 15.6582 69.9018 15.9 70.2 15.9C70.4982 15.9 70.74 15.6582 70.74 15.36V8.76Z" fill="#929292" stroke="black" stroke-width="0.15"/>
<path d="M67.62 8.76C67.62 8.46177 67.3782 8.22 67.08 8.22C66.7818 8.22 66.54 8.46177 66.54 8.76V15.36C66.54 15.6582 66.7818 15.9 67.08 15.9C67.3782 15.9 67.62 15.6582 67.62 15.36V8.76Z" fill="#929292" stroke="black" stroke-width="0.15"/>
<path d="M64.5 8.76C64.5 8.46177 64.2582 8.22 63.96 8.22C63.6618 8.22 63.42 8.46177 63.42 8.76V15.36C63.42 15.6582 63.6618 15.9 63.96 15.9C64.2582 15.9 64.5 15.6582 64.5 15.36V8.76Z" fill="#929292" stroke="black" stroke-width="0.15"/>
<path d="M80.1 8.76C80.1 8.46177 79.8582 8.22 79.56 8.22C79.2618 8.22 79.02 8.46177 79.02 8.76V15.36C79.02 15.6582 79.2618 15.9 79.56 15.9C79.8582 15.9 80.1 15.6582 80.1 15.36V8.76Z" fill="#929292" stroke="black" stroke-width="0.15"/>
<path d="M83.22 8.76C83.22 8.46177 82.9782 8.22 82.68 8.22C82.3817 8.22 82.14 8.46177 82.14 8.76V15.36C82.14 15.6582 82.3817 15.9 82.68 15.9C82.9782 15.9 83.22 15.6582 83.22 15.36V8.76Z" fill="#929292" stroke="black" stroke-width="0.15"/>
<path d="M76.98 8.76C76.98 8.46177 76.7382 8.22 76.44 8.22C76.1418 8.22 75.9 8.46177 75.9 8.76V15.36C75.9 15.6582 76.1418 15.9 76.44 15.9C76.7382 15.9 76.98 15.6582 76.98 15.36V8.76Z" fill="#929292" stroke="black" stroke-width="0.15"/>
<path d="M9.06001 8.76C9.06001 8.46177 8.81824 8.22 8.52001 8.22C8.22178 8.22 7.98001 8.46177 7.98001 8.76V15.36C7.98001 15.6582 8.22178 15.9 8.52001 15.9C8.81824 15.9 9.06001 15.6582 9.06001 15.36V8.76Z" fill="#929292" stroke="black" stroke-width="0.15"/>
<path d="M58.5 8.76C58.5 8.46177 58.2582 8.22 57.96 8.22C57.6618 8.22 57.42 8.46177 57.42 8.76V15.36C57.42 15.6582 57.6618 15.9 57.96 15.9C58.2582 15.9 58.5 15.6582 58.5 15.36V8.76Z" fill="#929292" stroke="black" stroke-width="0.15"/>
<path d="M58.5 8.76C58.5 8.46177 58.2582 8.22 57.96 8.22C57.6618 8.22 57.42 8.46177 57.42 8.76V15.36C57.42 15.6582 57.6618 15.9 57.96 15.9C58.2582 15.9 58.5 15.6582 58.5 15.36V8.76Z" fill="#929292" stroke="black" stroke-width="0.15"/>
<path d="M9.06001 8.76C9.06001 8.46177 8.81824 8.22 8.52001 8.22C8.22178 8.22 7.98001 8.46177 7.98001 8.76V15.36C7.98001 15.6582 8.22178 15.9 8.52001 15.9C8.81824 15.9 9.06001 15.6582 9.06001 15.36V8.76Z" fill="#929292" stroke="black" stroke-width="0.15"/>
<path d="M58.5 8.76C58.5 8.46177 58.2582 8.22 57.96 8.22C57.6618 8.22 57.42 8.46177 57.42 8.76V15.36C57.42 15.6582 57.6618 15.9 57.96 15.9C58.2582 15.9 58.5 15.6582 58.5 15.36V8.76Z" fill="#929292" stroke="black" stroke-width="0.15"/>
<path d="M33.78 8.76C33.78 8.46177 33.5382 8.22 33.24 8.22C32.9418 8.22 32.7 8.46177 32.7 8.76V15.36C32.7 15.6582 32.9418 15.9 33.24 15.9C33.5382 15.9 33.78 15.6582 33.78 15.36V8.76Z" fill="#929292" stroke="black" stroke-width="0.15"/>
<path d="M46.02 8.76C46.02 8.46177 45.7782 8.22 45.48 8.22C45.1818 8.22 44.94 8.46177 44.94 8.76V15.36C44.94 15.6582 45.1818 15.9 45.48 15.9C45.7782 15.9 46.02 15.6582 46.02 15.36V8.76Z" fill="#929292" stroke="black" stroke-width="0.15"/>
<path d="M39.78 8.76C39.78 8.46177 39.5382 8.22 39.24 8.22C38.9418 8.22 38.7 8.46177 38.7 8.76V15.36C38.7 15.6582 38.9418 15.9 39.24 15.9C39.5382 15.9 39.78 15.6582 39.78 15.36V8.76Z" fill="#929292" stroke="black" stroke-width="0.15"/>
<path d="M52.26 8.76C52.26 8.46177 52.0182 8.22 51.72 8.22C51.4218 8.22 51.18 8.46177 51.18 8.76V15.36C51.18 15.6582 51.4218 15.9 51.72 15.9C52.0182 15.9 52.26 15.6582 52.26 15.36V8.76Z" fill="#929292" stroke="black" stroke-width="0.15"/>
<path d="M49.14 8.76C49.14 8.46177 48.8982 8.22 48.6 8.22C48.3018 8.22 48.06 8.46177 48.06 8.76V15.36C48.06 15.6582 48.3018 15.9 48.6 15.9C48.8982 15.9 49.14 15.6582 49.14 15.36V8.76Z" fill="#929292" stroke="black" stroke-width="0.15"/>
<path d="M42.9 8.76C42.9 8.46177 42.6582 8.22 42.36 8.22C42.0618 8.22 41.82 8.46177 41.82 8.76V15.36C41.82 15.6582 42.0618 15.9 42.36 15.9C42.6582 15.9 42.9 15.6582 42.9 15.36V8.76Z" fill="#929292" stroke="black" stroke-width="0.15"/>
<path d="M55.38 8.76C55.38 8.46177 55.1382 8.22 54.84 8.22C54.5418 8.22 54.3 8.46177 54.3 8.76V15.36C54.3 15.6582 54.5418 15.9 54.84 15.9C55.1382 15.9 55.38 15.6582 55.38 15.36V8.76Z" fill="#929292" stroke="black" stroke-width="0.15"/>
<path d="M36.66 8.76C36.66 8.46177 36.4183 8.22 36.12 8.22C35.8218 8.22 35.58 8.46177 35.58 8.76V15.36C35.58 15.6582 35.8218 15.9 36.12 15.9C36.4183 15.9 36.66 15.6582 36.66 15.36V8.76Z" fill="#929292" stroke="black" stroke-width="0.15"/>
<path d="M21.3 8.76C21.3 8.46177 21.0582 8.22 20.76 8.22C20.4618 8.22 20.22 8.46177 20.22 8.76V15.36C20.22 15.6582 20.4618 15.9 20.76 15.9C21.0582 15.9 21.3 15.6582 21.3 15.36V8.76Z" fill="#929292" stroke="black" stroke-width="0.15"/>
<path d="M18.18 8.76C18.18 8.46177 17.9382 8.22 17.64 8.22C17.3418 8.22 17.1 8.46177 17.1 8.76V15.36C17.1 15.6582 17.3418 15.9 17.64 15.9C17.9382 15.9 18.18 15.6582 18.18 15.36V8.76Z" fill="#929292" stroke="black" stroke-width="0.15"/>
<path d="M15.06 8.76C15.06 8.46177 14.8182 8.22 14.52 8.22C14.2218 8.22 13.98 8.46177 13.98 8.76V15.36C13.98 15.6582 14.2218 15.9 14.52 15.9C14.8182 15.9 15.06 15.6582 15.06 15.36V8.76Z" fill="#929292" stroke="black" stroke-width="0.15"/>
<path d="M11.94 8.76C11.94 8.46177 11.6982 8.22 11.4 8.22C11.1018 8.22 10.86 8.46177 10.86 8.76V15.36C10.86 15.6582 11.1018 15.9 11.4 15.9C11.6982 15.9 11.94 15.6582 11.94 15.36V8.76Z" fill="#929292" stroke="black" stroke-width="0.15"/>
<path d="M27.54 8.76C27.54 8.46177 27.2982 8.22 27 8.22C26.7018 8.22 26.46 8.46177 26.46 8.76V15.36C26.46 15.6582 26.7018 15.9 27 15.9C27.2982 15.9 27.54 15.6582 27.54 15.36V8.76Z" fill="#929292" stroke="black" stroke-width="0.15"/>
<path d="M30.66 8.76C30.66 8.46177 30.4182 8.22 30.12 8.22C29.8218 8.22 29.58 8.46177 29.58 8.76V15.36C29.58 15.6582 29.8218 15.9 30.12 15.9C30.4182 15.9 30.66 15.6582 30.66 15.36V8.76Z" fill="#929292" stroke="black" stroke-width="0.15"/>
<path d="M24.42 8.76C24.42 8.46177 24.1782 8.22 23.88 8.22C23.5818 8.22 23.34 8.46177 23.34 8.76V15.36C23.34 15.6582 23.5818 15.9 23.88 15.9C24.1782 15.9 24.42 15.6582 24.42 15.36V8.76Z" fill="#929292" stroke="black" stroke-width="0.15"/>
<path d="M20.88 32.52C21.3439 32.52 21.72 32.1439 21.72 31.68C21.72 31.2161 21.3439 30.84 20.88 30.84C20.4161 30.84 20.04 31.2161 20.04 31.68C20.04 32.1439 20.4161 32.52 20.88 32.52Z" fill="#6D6D6D" stroke="black" stroke-width="0.5"/>
<path d="M4.32001 12.84C4.78393 12.84 5.16001 12.4639 5.16001 12C5.16001 11.5361 4.78393 11.16 4.32001 11.16C3.85609 11.16 3.48001 11.5361 3.48001 12C3.48001 12.4639 3.85609 12.84 4.32001 12.84Z" fill="#6D6D6D" stroke="black" stroke-width="0.5"/>
<path d="M20.88 63.48C21.3439 63.48 21.72 63.1039 21.72 62.64C21.72 62.1761 21.3439 61.8 20.88 61.8C20.4161 61.8 20.04 62.1761 20.04 62.64C20.04 63.1039 20.4161 63.48 20.88 63.48Z" fill="#6D6D6D" stroke="black" stroke-width="0.5"/>
<path d="M60 69.72C60.4639 69.72 60.84 69.3439 60.84 68.88C60.84 68.4161 60.4639 68.04 60 68.04C59.5361 68.04 59.16 68.4161 59.16 68.88C59.16 69.3439 59.5361 69.72 60 69.72Z" fill="#6D6D6D" stroke="black" stroke-width="0.5"/>
<path d="M99.12 63.48C99.5839 63.48 99.96 63.1039 99.96 62.64C99.96 62.1761 99.5839 61.8 99.12 61.8C98.6561 61.8 98.28 62.1761 98.28 62.64C98.28 63.1039 98.6561 63.48 99.12 63.48Z" fill="#6D6D6D" stroke="black" stroke-width="0.5"/>
<path d="M99.12 32.52C99.5839 32.52 99.96 32.1439 99.96 31.68C99.96 31.2161 99.5839 30.84 99.12 30.84C98.6561 30.84 98.28 31.2161 98.28 31.68C98.28 32.1439 98.6561 32.52 99.12 32.52Z" fill="#6D6D6D" stroke="black" stroke-width="0.5"/>
<path d="M60 26.76C60.4639 26.76 60.84 26.3839 60.84 25.92C60.84 25.4561 60.4639 25.08 60 25.08C59.5361 25.08 59.16 25.4561 59.16 25.92C59.16 26.3839 59.5361 26.76 60 26.76Z" fill="#6D6D6D" stroke="black" stroke-width="0.5"/>
<path d="M107.28 60.84C107.744 60.84 108.12 60.4639 108.12 60C108.12 59.5361 107.744 59.16 107.28 59.16C106.816 59.16 106.44 59.5361 106.44 60C106.44 60.4639 106.816 60.84 107.28 60.84Z" fill="#6D6D6D" stroke="black" stroke-width="0.5"/>
<path d="M113.16 64.32C115.48 64.32 117.36 62.4396 117.36 60.12C117.36 57.8004 115.48 55.92 113.16 55.92C110.84 55.92 108.96 57.8004 108.96 60.12C108.96 62.4396 110.84 64.32 113.16 64.32Z" fill="#666666"/>
<path d="M113.16 63.12C114.817 63.12 116.16 61.7769 116.16 60.12C116.16 58.4631 114.817 57.12 113.16 57.12C111.503 57.12 110.16 58.4631 110.16 60.12C110.16 61.7769 111.503 63.12 113.16 63.12Z" fill="#C4C4C4"/>
<path d="M112.88 61.68C112.659 61.68 112.48 61.5009 112.48 61.28V60.859C112.48 60.4806 112.08 60.0888 112.08 59.7103V59.7103C112.08 59.6004 112.103 59.5165 112.137 59.4526C112.246 59.2488 112.48 59.0594 112.48 58.828V58.828C112.48 58.7984 112.483 58.7688 112.491 58.7403C112.525 58.6253 112.636 58.32 112.88 58.32C113.018 58.32 113.114 58.4186 113.177 58.5248C113.272 58.6844 113.28 58.8771 113.28 59.0628V61.28C113.28 61.5009 113.101 61.68 112.88 61.68V61.68Z" fill="#333333" stroke="#333333"/>
<path d="M114.6 60.6C114.865 60.6 115.08 60.3851 115.08 60.12C115.08 59.8549 114.865 59.64 114.6 59.64C114.335 59.64 114.12 59.8549 114.12 60.12C114.12 60.3851 114.335 60.6 114.6 60.6Z" fill="#C4C4C4" stroke="#333333"/>
<path d="M92.16 28.8H27.6C24.949 28.8 22.8 30.949 22.8 33.6V61.2C22.8 63.851 24.949 66 27.6 66H92.16C94.8111 66 96.96 63.851 96.96 61.2V33.6C96.96 30.949 94.8111 28.8 92.16 28.8Z" stroke="black" stroke-width="1.5"/>
</svg>
