<svg width="70" height="70" viewBox="0 0 70 70" fill="none" xmlns="http://www.w3.org/2000/svg">
<path d="M63.8477 39.2931H58.6179L69.6974 11.7747C70.1437 10.6666 69.6613 9.3832 68.6204 8.90834C67.5794 8.43347 66.3737 8.94676 65.9276 10.0548L54.1555 39.2931H15.8445L4.07244 10.0548C3.62633 8.94676 2.42088 8.43318 1.37963 8.90834C0.338652 9.3832 -0.143555 10.6665 0.302559 11.7747L11.3821 39.2931H6.15234C2.75994 39.2931 0 42.231 0 45.842V58.9397C0 62.5507 2.75994 65.4886 6.15234 65.4886H8.33984V67.817C8.33984 69.0226 9.25805 70 10.3906 70C11.5232 70 12.4414 69.0226 12.4414 67.817V65.4886H57.5586V67.817C57.5586 69.0226 58.4768 70 59.6094 70C60.742 70 61.6602 69.0226 61.6602 67.817V65.4886H63.8477C67.2401 65.4886 70 62.5507 70 58.9397V45.842C70 42.231 67.2401 39.2931 63.8477 39.2931ZM65.8984 58.9397C65.8984 60.1434 64.9785 61.1227 63.8477 61.1227H6.15234C5.02154 61.1227 4.10156 60.1434 4.10156 58.9397V45.842C4.10156 44.6383 5.02154 43.659 6.15234 43.659H63.8477C64.9785 43.659 65.8984 44.6383 65.8984 45.842V58.9397Z" fill="black" fill-opacity="0.75"/>
<path d="M30.658 28.116C29.8571 28.9685 29.8571 30.3506 30.658 31.2031C31.4587 32.0556 32.7573 32.0556 33.5582 31.2031C33.7833 30.9634 34.2702 30.5613 35 30.5613C35.7298 30.5613 36.2165 30.9634 36.4418 31.2031C37.2426 32.0556 38.5412 32.0558 39.3421 31.2031C40.143 30.3506 40.143 28.9685 39.3421 28.116C38.6682 27.3988 37.208 26.1954 35 26.1954C32.792 26.1954 31.3318 27.3988 30.658 28.116Z" fill="black" fill-opacity="0.75"/>
<path d="M16.147 12.688C21.1851 7.32148 27.8805 4.3659 35 4.3659C42.1195 4.3659 48.8149 7.32148 53.853 12.688C54.653 13.5406 55.9516 13.5417 56.7532 12.6892C57.5544 11.8371 57.5548 10.4549 56.7543 9.60208C50.9415 3.41006 43.2157 0 35 0C26.7843 0 19.0586 3.41006 13.2459 9.60193C12.4452 10.4547 12.4456 11.8368 13.2469 12.6891C14.048 13.5413 15.3467 13.5407 16.147 12.688Z" fill="black" fill-opacity="0.75"/>
<path d="M50.9491 18.8609C51.7502 18.0089 51.7509 16.6267 50.9506 15.7737C46.6888 11.2327 41.0242 8.73181 35 8.73181C28.9758 8.73181 23.3111 11.2327 19.0494 15.7737C18.2491 16.6267 18.2496 18.0088 19.0509 18.8609C19.8522 19.7129 21.1508 19.7122 21.9511 18.8593C25.4379 15.1439 30.0721 13.0977 34.9999 13.0977C39.9276 13.0977 44.5617 15.1439 48.0486 18.8593C48.8488 19.7118 50.1471 19.7135 50.9491 18.8609Z" fill="black" fill-opacity="0.75"/>
<path d="M45.147 25.0306C45.9479 24.1781 45.9479 22.796 45.147 21.9435C42.433 19.0546 38.8294 17.4636 35 17.4636C31.1706 17.4636 27.567 19.0546 24.8531 21.9435C24.0522 22.796 24.0522 24.1781 24.8531 25.0306C25.6539 25.8831 26.9525 25.8833 27.7534 25.0306C29.6926 22.9664 32.2662 21.8295 35 21.8295C37.7338 21.8295 40.3074 22.9664 42.2468 25.0306C43.0475 25.8831 44.3461 25.8831 45.147 25.0306Z" fill="black" fill-opacity="0.75"/>
<path d="M43.2031 48.0249C42.0705 48.0249 41.1523 49.0023 41.1523 50.2079V54.5738C41.1523 55.7794 42.0705 56.7568 43.2031 56.7568C44.3357 56.7568 45.2539 55.7794 45.2539 54.5738V50.2079C45.2539 49.0023 44.3357 48.0249 43.2031 48.0249Z" fill="black" fill-opacity="0.75"/>
<path d="M51.4062 48.0249C50.2737 48.0249 49.3555 49.0023 49.3555 50.2079V54.5738C49.3555 55.7794 50.2737 56.7568 51.4062 56.7568C52.5388 56.7568 53.457 55.7794 53.457 54.5738V50.2079C53.457 49.0023 52.5388 48.0249 51.4062 48.0249Z" fill="black" fill-opacity="0.75"/>
<path d="M59.6094 48.0249C58.4768 48.0249 57.5586 49.0023 57.5586 50.2079V54.5738C57.5586 55.7794 58.4768 56.7568 59.6094 56.7568C60.742 56.7568 61.6602 55.7794 61.6602 54.5738V50.2079C61.6602 49.0023 60.742 48.0249 59.6094 48.0249Z" fill="black" fill-opacity="0.75"/>
</svg>
